<svg width="88" height="88" viewBox="0 0 88 88" fill="none" xmlns="http://www.w3.org/2000/svg">
<circle cx="44" cy="44" r="44" fill="url(#paint0_linear_49_1743)"/>
<path d="M55.0837 59.8333H32.917C31.6572 59.8333 30.449 59.3328 29.5582 58.442C28.6674 57.5513 28.167 56.3431 28.167 55.0833V29.75C28.167 29.33 28.3338 28.9273 28.6307 28.6304C28.9277 28.3334 29.3304 28.1666 29.7503 28.1666H51.917C52.3369 28.1666 52.7396 28.3334 53.0366 28.6304C53.3335 28.9273 53.5003 29.33 53.5003 29.75V48.75H59.8337V55.0833C59.8337 56.3431 59.3332 57.5513 58.4424 58.442C57.5516 59.3328 56.3434 59.8333 55.0837 59.8333ZM53.5003 51.9166V55.0833C53.5003 55.5032 53.6671 55.9059 53.9641 56.2029C54.261 56.4998 54.6637 56.6666 55.0837 56.6666C55.5036 56.6666 55.9063 56.4998 56.2032 56.2029C56.5002 55.9059 56.667 55.5032 56.667 55.0833V51.9166H53.5003ZM50.3337 56.6666V31.3333H31.3337V55.0833C31.3337 55.5032 31.5005 55.9059 31.7974 56.2029C32.0943 56.4998 32.4971 56.6666 32.917 56.6666H50.3337ZM34.5003 36.0833H47.167V39.25H34.5003V36.0833ZM34.5003 42.4166H47.167V45.5833H34.5003V42.4166ZM34.5003 48.75H42.417V51.9166H34.5003V48.75Z" fill="#1E1E1E"/>
<defs>
<linearGradient id="paint0_linear_49_1743" x1="68.2814" y1="10.8363" x2="11.2232" y2="48.0492" gradientUnits="userSpaceOnUse">
<stop stop-color="#AB803B"/>
<stop offset="0.235294" stop-color="#CDB14F"/>
<stop offset="0.490196" stop-color="#F0E263"/>
<stop offset="0.733333" stop-color="#D9B84A"/>
<stop offset="1" stop-color="#C28D31"/>
</linearGradient>
</defs>
</svg>
